<mxfile host="app.diagrams.net" modified="2024-05-21T09:27:01.302Z" agent="Mozilla/5.0 (Windows NT 10.0; Win64; x64) AppleWebKit/537.36 (KHTML, like Gecko) Chrome/123.0.0.0 Safari/537.36 OPR/109.0.0.0" etag="b0KvmB1mQeaqOxUogLBW" version="24.4.4" type="device">
  <diagram name="Page-1" id="Sj2x6cW2y5JQ7Eo2TBlC">
    <mxGraphModel dx="628" dy="636" grid="1" gridSize="10" guides="1" tooltips="1" connect="1" arrows="1" fold="1" page="1" pageScale="1" pageWidth="827" pageHeight="1169" math="0" shadow="0">
      <root>
        <mxCell id="0" />
        <mxCell id="1" parent="0" />
        <mxCell id="gwOjxGkQuXVdQYi5bwYu-195" value="Грузчик" style="html=1;whiteSpace=wrap;" vertex="1" parent="1">
          <mxGeometry x="80" y="70" width="110" height="50" as="geometry" />
        </mxCell>
        <mxCell id="gwOjxGkQuXVdQYi5bwYu-196" value="" style="html=1;points=[[0,0,0,0,5],[0,1,0,0,-5],[1,0,0,0,5],[1,1,0,0,-5]];perimeter=orthogonalPerimeter;outlineConnect=0;targetShapes=umlLifeline;portConstraint=eastwest;newEdgeStyle={&quot;curved&quot;:0,&quot;rounded&quot;:0};" vertex="1" parent="1">
          <mxGeometry x="80" y="140" width="10" height="330" as="geometry" />
        </mxCell>
        <mxCell id="gwOjxGkQuXVdQYi5bwYu-197" value="Терминал сбора&lt;br&gt;данных" style="html=1;whiteSpace=wrap;" vertex="1" parent="1">
          <mxGeometry x="304" y="70" width="110" height="50" as="geometry" />
        </mxCell>
        <mxCell id="gwOjxGkQuXVdQYi5bwYu-198" value="бд" style="html=1;whiteSpace=wrap;" vertex="1" parent="1">
          <mxGeometry x="500" y="70" width="110" height="50" as="geometry" />
        </mxCell>
        <mxCell id="gwOjxGkQuXVdQYi5bwYu-199" value="Прием товара" style="endArrow=block;endSize=16;endFill=0;html=1;rounded=0;" edge="1" parent="1">
          <mxGeometry width="160" relative="1" as="geometry">
            <mxPoint x="90" y="160" as="sourcePoint" />
            <mxPoint x="350" y="160" as="targetPoint" />
          </mxGeometry>
        </mxCell>
        <mxCell id="gwOjxGkQuXVdQYi5bwYu-200" value="" style="html=1;points=[[0,0,0,0,5],[0,1,0,0,-5],[1,0,0,0,5],[1,1,0,0,-5]];perimeter=orthogonalPerimeter;outlineConnect=0;targetShapes=umlLifeline;portConstraint=eastwest;newEdgeStyle={&quot;curved&quot;:0,&quot;rounded&quot;:0};" vertex="1" parent="1">
          <mxGeometry x="354" y="130" width="10" height="120" as="geometry" />
        </mxCell>
        <mxCell id="gwOjxGkQuXVdQYi5bwYu-201" value="" style="html=1;points=[[0,0,0,0,5],[0,1,0,0,-5],[1,0,0,0,5],[1,1,0,0,-5]];perimeter=orthogonalPerimeter;outlineConnect=0;targetShapes=umlLifeline;portConstraint=eastwest;newEdgeStyle={&quot;curved&quot;:0,&quot;rounded&quot;:0};" vertex="1" parent="1">
          <mxGeometry x="550" y="130" width="10" height="120" as="geometry" />
        </mxCell>
        <mxCell id="gwOjxGkQuXVdQYi5bwYu-202" value="Запрос для добавления&lt;br&gt;товара в бд" style="endArrow=block;endSize=16;endFill=0;html=1;rounded=0;" edge="1" parent="1">
          <mxGeometry width="160" relative="1" as="geometry">
            <mxPoint x="364" y="160" as="sourcePoint" />
            <mxPoint x="550" y="160" as="targetPoint" />
          </mxGeometry>
        </mxCell>
        <mxCell id="gwOjxGkQuXVdQYi5bwYu-203" value="" style="endArrow=open;endFill=1;endSize=12;html=1;rounded=0;entryX=1.6;entryY=0.917;entryDx=0;entryDy=0;entryPerimeter=0;" edge="1" parent="1" source="gwOjxGkQuXVdQYi5bwYu-201" target="gwOjxGkQuXVdQYi5bwYu-200">
          <mxGeometry width="160" relative="1" as="geometry">
            <mxPoint x="270" y="300" as="sourcePoint" />
            <mxPoint x="430" y="300" as="targetPoint" />
          </mxGeometry>
        </mxCell>
        <mxCell id="gwOjxGkQuXVdQYi5bwYu-220" value="Вернуть результат" style="edgeLabel;html=1;align=center;verticalAlign=middle;resizable=0;points=[];" vertex="1" connectable="0" parent="gwOjxGkQuXVdQYi5bwYu-203">
          <mxGeometry x="0.0056" y="-2" relative="1" as="geometry">
            <mxPoint as="offset" />
          </mxGeometry>
        </mxCell>
        <mxCell id="gwOjxGkQuXVdQYi5bwYu-204" value="Вывод обновленного&lt;br&gt;списка товаров" style="endArrow=block;endSize=16;endFill=0;html=1;rounded=0;" edge="1" parent="1">
          <mxGeometry width="160" relative="1" as="geometry">
            <mxPoint x="350" y="240" as="sourcePoint" />
            <mxPoint x="90" y="240.0000000000001" as="targetPoint" />
          </mxGeometry>
        </mxCell>
        <mxCell id="gwOjxGkQuXVdQYi5bwYu-225" value="Запрос для обновления&lt;br&gt;товаров с помощью&lt;br&gt;тсд" style="endArrow=block;endSize=16;endFill=0;html=1;rounded=0;" edge="1" parent="1">
          <mxGeometry width="160" relative="1" as="geometry">
            <mxPoint x="90" y="350" as="sourcePoint" />
            <mxPoint x="350" y="350" as="targetPoint" />
          </mxGeometry>
        </mxCell>
        <mxCell id="gwOjxGkQuXVdQYi5bwYu-226" value="" style="html=1;points=[[0,0,0,0,5],[0,1,0,0,-5],[1,0,0,0,5],[1,1,0,0,-5]];perimeter=orthogonalPerimeter;outlineConnect=0;targetShapes=umlLifeline;portConstraint=eastwest;newEdgeStyle={&quot;curved&quot;:0,&quot;rounded&quot;:0};" vertex="1" parent="1">
          <mxGeometry x="354" y="320" width="10" height="120" as="geometry" />
        </mxCell>
        <mxCell id="gwOjxGkQuXVdQYi5bwYu-227" value="" style="html=1;points=[[0,0,0,0,5],[0,1,0,0,-5],[1,0,0,0,5],[1,1,0,0,-5]];perimeter=orthogonalPerimeter;outlineConnect=0;targetShapes=umlLifeline;portConstraint=eastwest;newEdgeStyle={&quot;curved&quot;:0,&quot;rounded&quot;:0};" vertex="1" parent="1">
          <mxGeometry x="550" y="320" width="10" height="120" as="geometry" />
        </mxCell>
        <mxCell id="gwOjxGkQuXVdQYi5bwYu-228" value="Запрос для обновления &lt;br&gt;товаров" style="endArrow=block;endSize=16;endFill=0;html=1;rounded=0;" edge="1" parent="1">
          <mxGeometry width="160" relative="1" as="geometry">
            <mxPoint x="364" y="350" as="sourcePoint" />
            <mxPoint x="550" y="350" as="targetPoint" />
          </mxGeometry>
        </mxCell>
        <mxCell id="gwOjxGkQuXVdQYi5bwYu-229" value="" style="endArrow=open;endFill=1;endSize=12;html=1;rounded=0;entryX=1.6;entryY=0.917;entryDx=0;entryDy=0;entryPerimeter=0;" edge="1" parent="1" source="gwOjxGkQuXVdQYi5bwYu-227" target="gwOjxGkQuXVdQYi5bwYu-226">
          <mxGeometry width="160" relative="1" as="geometry">
            <mxPoint x="270" y="490" as="sourcePoint" />
            <mxPoint x="430" y="490" as="targetPoint" />
          </mxGeometry>
        </mxCell>
        <mxCell id="gwOjxGkQuXVdQYi5bwYu-230" value="Вернуть результат" style="edgeLabel;html=1;align=center;verticalAlign=middle;resizable=0;points=[];" vertex="1" connectable="0" parent="gwOjxGkQuXVdQYi5bwYu-229">
          <mxGeometry x="0.0056" y="-2" relative="1" as="geometry">
            <mxPoint as="offset" />
          </mxGeometry>
        </mxCell>
        <mxCell id="gwOjxGkQuXVdQYi5bwYu-231" value="Вывод обновленного&lt;br&gt;списка товаров" style="endArrow=block;endSize=16;endFill=0;html=1;rounded=0;" edge="1" parent="1">
          <mxGeometry width="160" relative="1" as="geometry">
            <mxPoint x="350" y="430" as="sourcePoint" />
            <mxPoint x="90" y="430.0000000000001" as="targetPoint" />
          </mxGeometry>
        </mxCell>
      </root>
    </mxGraphModel>
  </diagram>
</mxfile>
